<?xml version="1.0" encoding="utf-8"?>
<!-- Generator: Adobe Illustrator 17.0.0, SVG Export Plug-In . SVG Version: 6.00 Build 0)  -->
<!DOCTYPE svg PUBLIC "-//W3C//DTD SVG 1.1//EN" "http://www.w3.org/Graphics/SVG/1.1/DTD/svg11.dtd">
<svg version="1.1" id="Layer_1" xmlns="http://www.w3.org/2000/svg" xmlns:xlink="http://www.w3.org/1999/xlink" x="0px" y="0px"
	 width="428.663px" height="307.301px" viewBox="0 0 428.663 307.301" enable-background="new 0 0 428.663 307.301"
	 xml:space="preserve">
<g>
	<path fill="#FFFFFF" d="M401.228,8.08l24.788,80.006c1.923,6.205-1.582,12.856-7.787,14.778l-188.171,58.3
		c-6.205,1.923-12.856-1.582-14.778-7.787l-24.788-80.006c-1.923-6.205,1.582-12.856,7.787-14.778l188.171-58.3
		C392.655-1.63,399.305,1.874,401.228,8.08"/>
	<path fill="none" stroke="#BCBEC0" stroke-miterlimit="10" d="M401.228,8.08l24.788,80.006c1.923,6.205-1.582,12.856-7.787,14.778
		l-188.171,58.3c-6.205,1.923-12.856-1.582-14.778-7.787l-24.788-80.006c-1.923-6.205,1.582-12.856,7.787-14.778l188.171-58.3
		C392.655-1.63,399.305,1.874,401.228,8.08z"/>
	
		<rect x="263.259" y="-3.715" transform="matrix(-0.2959 -0.9552 0.9552 -0.2959 325.5578 400.1255)" fill="#FFFFFF" width="93.96" height="167.597"/>
	
		<rect x="263.259" y="-3.715" transform="matrix(-0.2959 -0.9552 0.9552 -0.2959 325.5578 400.1255)" fill="none" stroke="#BCBEC0" stroke-miterlimit="10" width="93.96" height="167.597"/>
	<path fill="#FFFFFF" d="M222.182,122.938c1.03-0.319,2.122,0.257,2.441,1.286c0.319,1.03-0.257,2.123-1.286,2.442
		c-1.03,0.319-2.122-0.257-2.441-1.287C220.577,124.35,221.152,123.257,222.182,122.938"/>
	<circle fill="none" stroke="#BCBEC0" stroke-miterlimit="10" cx="222.759" cy="124.802" r="1.951"/>
	<circle fill="none" stroke="#BCBEC0" stroke-miterlimit="10" cx="210.718" cy="110.57" r="1.436"/>
	<path fill="#FFFFFF" d="M216.311,101.129l4.62,14.912c0.174,0.561-0.143,1.162-0.704,1.336c-0.561,0.174-1.162-0.143-1.336-0.704
		l-4.62-14.912c-0.174-0.561,0.143-1.162,0.704-1.336C215.537,100.251,216.138,100.568,216.311,101.129"/>
	<path fill="none" stroke="#BCBEC0" stroke-miterlimit="10" d="M216.311,101.129l4.62,14.912c0.174,0.561-0.143,1.162-0.704,1.336
		c-0.561,0.174-1.162-0.143-1.336-0.704l-4.62-14.912c-0.174-0.561,0.143-1.162,0.704-1.336
		C215.537,100.251,216.138,100.568,216.311,101.129z"/>
	<path fill="#FFFFFF" d="M411.007,49.017L411.007,49.017c1.414,4.565-1.163,9.457-5.728,10.871
		c-4.565,1.414-9.457-1.163-10.871-5.728c-1.414-4.565,1.163-9.457,5.728-10.871C404.7,41.874,409.592,44.452,411.007,49.017"/>
	<path fill="none" stroke="#BCBEC0" stroke-miterlimit="10" d="M411.007,49.017L411.007,49.017
		c1.414,4.565-1.163,9.457-5.728,10.871c-4.565,1.414-9.457-1.163-10.871-5.728c-1.414-4.565,1.163-9.457,5.728-10.871
		C404.7,41.874,409.592,44.452,411.007,49.017z"/>
	<path fill="#FFFFFF" stroke="#BCBEC0" stroke-miterlimit="10" d="M409.505,49.482L409.505,49.482
		c1.158,3.739-0.953,7.746-4.692,8.904c-3.739,1.158-7.746-0.953-8.904-4.692c-1.158-3.739,0.953-7.746,4.692-8.904
		C404.34,43.632,408.347,45.743,409.505,49.482"/>
	<path fill="none" stroke="#BCBEC0" stroke-miterlimit="10" d="M409.505,49.482L409.505,49.482c1.158,3.739-0.953,7.746-4.692,8.904
		c-3.739,1.158-7.746-0.953-8.904-4.692c-1.158-3.739,0.953-7.746,4.692-8.904C404.34,43.632,408.347,45.743,409.505,49.482z"/>
	<text transform="matrix(0.9554 -0.2952 0.2952 0.9554 293.3445 46.5146)"><tspan x="0" y="0" fill="#BCBEC0" font-family="'HelveticaNeue'" font-size="7.3783">Two-Factor Authorization</tspan><tspan x="30.59" y="8.854" fill="#BCBEC0" font-family="'HelveticaNeue'" font-size="7.3783">Code Generator</tspan></text>
</g>
<path fill="none" stroke="#231F20" stroke-linecap="round" stroke-linejoin="round" stroke-miterlimit="10" d="M191.673,180.874
	c0,0,4.787,1.611,5.429,2.893"/>
<path fill="none" stroke="#231F20" stroke-linecap="round" stroke-linejoin="round" stroke-miterlimit="10" d="M222.14,173.957
	c0,0-0.361,30.713-1.626,32.159s-5.962,4.878-11.021,5.42c-0.723,3.794-9.395,26.197-11.021,27.642
	c-1.626,1.445-7.407,3.613-10.84,0.181c-3.433-3.433-5.601-7.588-5.601-7.588s-1.445,10.479-11.563,13.731"/>
<path fill="none" stroke="#231F20" stroke-linecap="round" stroke-linejoin="round" stroke-miterlimit="10" d="M206.061,167.453
	c0,0-8.13,11.563-8.672,14.634c-0.542,3.071-0.723,15.537-0.181,16.621c0.542,1.084,8.672,13.008,12.285,12.827"/>
<path fill="none" stroke="#231F20" stroke-linecap="round" stroke-linejoin="round" stroke-miterlimit="10" d="M221.779,192.855
	c-5.239-1.987-7.046,4.878-6.685,6.504c0.361,1.626,5.781,3.613,5.781,3.613"/>
<g>
	<g id="Username_3_">
		<g>
			<path fill="#FFFFFF" d="M197.514,180.488c-2.313,4.99-0.122,10.965,4.868,13.278l113.513,52.608
				c4.99,2.313,10.965,0.122,13.278-4.868l30.882-66.634c2.313-4.99,0.122-10.965-4.868-13.278l-113.513-52.608
				c-4.99-2.313-10.965-0.122-13.278,4.868L197.514,180.488z"/>
			<path fill="none" stroke="#BCBEC0" stroke-miterlimit="10" d="M197.514,180.488c-2.313,4.99-0.122,10.965,4.868,13.278
				l113.513,52.608c4.99,2.313,10.965,0.122,13.278-4.868l30.882-66.634c2.313-4.99,0.122-10.965-4.868-13.278l-113.513-52.608
				c-4.99-2.313-10.965-0.122-13.278,4.868L197.514,180.488z"/>
		</g>
	</g>
	
		<text transform="matrix(0.9097 0.4153 -0.4153 0.9097 271.8771 220.4755)" fill="#BCBEC0" font-family="'HelveticaNeue'" font-size="9.3825">Employee ID</text>
</g>
<g>
	<g id="Username_2_">
		<g>
			<path fill="#FFFFFF" d="M201.796,173.904c-1.674,5.239,1.242,10.895,6.481,12.57l119.172,38.088
				c5.239,1.674,10.895-1.242,12.57-6.481l22.358-69.957c1.674-5.239-1.242-10.895-6.481-12.57L236.724,97.466
				c-5.239-1.674-10.895,1.242-12.57,6.481L201.796,173.904z"/>
			<path fill="none" stroke="#BCBEC0" stroke-miterlimit="10" d="M201.796,173.904c-1.674,5.239,1.242,10.895,6.481,12.57
				l119.172,38.088c5.239,1.674,10.895-1.242,12.57-6.481l22.358-69.957c1.674-5.239-1.242-10.895-6.481-12.57L236.724,97.466
				c-5.239-1.674-10.895,1.242-12.57,6.481L201.796,173.904z"/>
		</g>
	</g>
	
		<text transform="matrix(0.9543 0.299 -0.299 0.9543 280.0442 204.1584)" fill="#BCBEC0" font-family="'HelveticaNeue'" font-size="9.3825">Access Card</text>
</g>
<g>
	<g id="Username_1_">
		<g>
			<path fill="#FFFFFF" d="M207.333,170.458c-0.927,5.421,2.75,10.616,8.171,11.543l123.32,21.092
				c5.421,0.927,10.616-2.75,11.543-8.171l12.382-72.391c0.927-5.421-2.75-10.616-8.171-11.543l-123.32-21.092
				c-5.421-0.927-10.615,2.75-11.543,8.171L207.333,170.458z"/>
			<path fill="none" stroke="#BCBEC0" stroke-miterlimit="10" d="M207.333,170.458c-0.927,5.421,2.75,10.616,8.171,11.543
				l123.32,21.092c5.421,0.927,10.616-2.75,11.543-8.171l12.382-72.391c0.927-5.421-2.75-10.616-8.171-11.543l-123.32-21.092
				c-5.421-0.927-10.615,2.75-11.543,8.171L207.333,170.458z"/>
		</g>
	</g>
	
		<text transform="matrix(0.9854 0.1703 -0.1703 0.9854 253.1522 183.0581)" fill="#BCBEC0" font-family="'Handlee-Regular'" font-size="12">password: dog123</text>
</g>
<g id="Username">
	<g>
		<path fill="#FFFFFF" d="M356.444,130.696c0.927,5.421-2.75,10.616-8.171,11.543l-123.32,21.092
			c-5.421,0.927-10.615-2.75-11.543-8.171l-12.382-72.391c-0.927-5.421,2.75-10.616,8.171-11.543l123.32-21.092
			c5.421-0.927,10.616,2.75,11.543,8.171L356.444,130.696z"/>
		<path fill="none" stroke="#BCBEC0" stroke-miterlimit="10" d="M356.444,130.696c0.927,5.421-2.75,10.616-8.171,11.543
			l-123.32,21.092c-5.421,0.927-10.615-2.75-11.543-8.171l-12.382-72.391c-0.927-5.421,2.75-10.616,8.171-11.543l123.32-21.092
			c5.421-0.927,10.616,2.75,11.543,8.171L356.444,130.696z"/>
	</g>
	
		<text transform="matrix(0.9852 -0.1715 0.1715 0.9852 248.0332 76.231)" fill="#BCBEC0" font-family="'Handlee-Regular'" font-size="12">username: mary77</text>
</g>
<g>
	<g>
		<path fill="#FFFFFF" d="M350.886,163.9c0,5.5-4.5,10-10,10H215.775c-5.5,0-10-4.5-10-10V90.457c0-5.5,4.5-10,10-10h125.111
			c5.5,0,10,4.5,10,10V163.9z"/>
		<path fill="none" stroke="#231F20" stroke-miterlimit="10" d="M350.886,163.9c0,5.5-4.5,10-10,10H215.775c-5.5,0-10-4.5-10-10
			V90.457c0-5.5,4.5-10,10-10h125.111c5.5,0,10,4.5,10,10V163.9z"/>
	</g>
	<path fill="none" stroke="#231F20" stroke-width="1.5" stroke-linecap="round" stroke-linejoin="round" stroke-miterlimit="10" d="
		M248.482,132.196c-1.118,0.07-2.189,0.179-3.211,0.321c-1.332,0.191-2.307,0.595-2.925,1.213c-0.618,0.618-0.928,1.629-0.928,3.032
		v5.31h16.805v-12.476c-1.053,0.48-2.652,1.137-4.405,1.612C251.585,131.814,249.601,132.125,248.482,132.196z"/>
	<path fill="none" stroke="#231F20" stroke-width="1.5" stroke-linecap="round" stroke-linejoin="round" stroke-miterlimit="10" d="
		M236.568,133.337c-0.569-0.642-1.499-0.963-2.783-0.963c-1.235,0-2.132,0.32-2.692,0.963c-0.262,0.3-0.456,0.678-0.595,1.119v7.616
		h6.927v-5.845C237.425,134.942,237.139,133.979,236.568,133.337z"/>
	
		<polygon fill="none" stroke="#231F20" stroke-width="1.5" stroke-linecap="round" stroke-linejoin="round" stroke-miterlimit="10" points="
		258.225,114.989 258.225,122.992 242.164,119.059 242.164,118.988 258.225,114.989 	"/>
	<path fill="none" stroke="#231F20" stroke-width="1.5" stroke-linecap="round" stroke-linejoin="round" stroke-miterlimit="10" d="
		M242.104,114.346l-8.073,2.002v5.245l17.335,4.422v0.013c-0.356,0.26-0.788,0.457-1.297,0.585
		c-0.512,0.131-1.053,0.227-1.624,0.286c-0.569,0.06-1.128,0.101-1.676,0.125c-0.546,0.025-1.022,0.048-1.427,0.072
		c-0.641,0.047-1.283,0.137-1.926,0.267c-0.643,0.131-1.231,0.338-1.765,0.623c-0.535,0.286-0.999,0.655-1.392,1.106
		c-0.394,0.453-0.683,1.025-0.874,1.713h-0.072c-0.571-1.426-1.403-2.455-2.496-3.086c-1.095-0.629-2.391-0.945-3.889-0.945
		c-0.862,0-1.67,0.144-2.431,0.413v-12.841H242.104z"/>
	<path fill="none" stroke="#231F20" stroke-width="1.5" stroke-miterlimit="10" d="M259.289,113.205"/>
	<g>
		<path fill="#231F20" d="M329.353,120.674c1.65,0,3,1.35,3,3v16.138c0,1.65-1.35,3-3,3h-23.987c-1.65,0-3-1.35-3-3v-16.138
			c0-1.65,1.35-3,3-3H329.353 M329.353,119.674h-23.987c-2.206,0-4,1.794-4,4v16.138c0,2.206,1.794,4,4,4h23.987
			c2.206,0,4-1.794,4-4v-16.138C333.353,121.468,331.558,119.674,329.353,119.674L329.353,119.674z"/>
	</g>
	<g>
		
			<line fill="none" stroke="#231F20" stroke-linecap="round" stroke-linejoin="round" x1="304.049" y1="135.605" x2="330.816" y2="135.605"/>
	</g>
	<g>
		
			<line fill="none" stroke="#231F20" stroke-linecap="round" stroke-linejoin="round" x1="304.049" y1="127.756" x2="330.816" y2="127.756"/>
	</g>
	<g>
		
			<line fill="none" stroke="#231F20" stroke-linecap="round" stroke-linejoin="round" x1="322.943" y1="140.507" x2="322.943" y2="123.222"/>
	</g>
	<g>
		
			<line fill="none" stroke="#231F20" stroke-linecap="round" stroke-linejoin="round" x1="312.216" y1="140.507" x2="312.216" y2="123.222"/>
	</g>
</g>
<polyline fill="#FFFFFF" points="201.98,163.655 224.972,133.528 206.737,110.537 201.187,111.329 195.638,125.336 "/>
<path fill="none" stroke="#231F20" stroke-linecap="round" stroke-linejoin="round" stroke-miterlimit="10" d="M-0.47,307.52
	c69.772-59.339,88.291-156.378,95.962-162.69c7.671-6.313,62.266-41.964,68.677-42.404c6.411-0.44,36.073,8.92,36.073,8.92
	s14.335-3.863,21.31,2.817c5.394,5.239,7.193,13.785,2.47,20.981c-65.891,81.408-43.666,96.917-57.897,119.867
	c-14.23,22.951-27.308,27.906-28.088,29.992c-0.78,2.087-2.651,2.567-3.863,4.568c-1.212,2.001-21.122,17.948-21.122,17.948"/>
<path fill="none" stroke="#231F20" stroke-linecap="round" stroke-linejoin="round" stroke-miterlimit="10" d="M127.289,187.972
	c0,0,16.421-5.673,27.468-17.018c11.047-11.345,22.093-36.424,25.079-40.903c2.733-4.1,13.4-14.781,18.997-18.012
	c0.517-0.298,0.99-0.533,1.41-0.693"/>
<path fill="none" stroke="#231F20" stroke-linecap="round" stroke-linejoin="round" stroke-miterlimit="10" d="M164.463,203.491
	c16.421,2.687,15.393-0.417,16.757-2.428"/>
<path fill="none" stroke="#231F20" stroke-linecap="round" stroke-linejoin="round" stroke-miterlimit="10" d="M151.617,221.468
	c25.975,1.493,24.245-7.436,26.046-11.143"/>
<path fill="none" stroke="#231F20" stroke-linecap="round" stroke-linejoin="round" stroke-miterlimit="10" d="M127.441,281.714
	c16.719,0,19.058-3.777,20.602-4.777"/>
<path fill="none" stroke="#231F20" stroke-linecap="round" stroke-linejoin="round" stroke-miterlimit="10" d="M149.576,175.023
	c0,0-11.051-13.746-33.96-23.449"/>
<path fill="none" stroke="#231F20" stroke-linecap="round" stroke-linejoin="round" stroke-miterlimit="10" d="M142.416,139.287
	c12.803,5.391,14.15,29.513,14.15,29.513"/>
<path fill="none" stroke="#231F20" stroke-linecap="round" stroke-linejoin="round" stroke-miterlimit="10" d="M133.404,178.392
	c7.008,0.135,7.412,2.695,7.412,2.695"/>
<path fill="none" stroke="#231F20" stroke-linecap="round" stroke-linejoin="round" stroke-miterlimit="10" d="M115.296,157.61
	c3.369-3.369,7.412-2.695,7.412-2.695"/>
<path fill="none" stroke="#231F20" stroke-linecap="round" stroke-linejoin="round" stroke-miterlimit="10" d="M168.712,111.684
	c5.525,9.973,3.908,24.257,3.908,24.257s-10.646,14.959-21.427,11.859"/>
<line fill="none" stroke="#231F20" stroke-miterlimit="10" x1="176.159" y1="136.346" x2="172.924" y2="135.941"/>
<path fill="none" stroke="#231F20" stroke-linecap="round" stroke-linejoin="round" stroke-miterlimit="10" d="M183.536,145.375
	c8.76,2.426,13.881,11.32,13.881,11.32"/>
<path fill="none" stroke="#231F20" stroke-linecap="round" stroke-linejoin="round" stroke-miterlimit="10" d="M178.819,151.574
	c6.064,6.873,13.207,11.32,13.207,11.32"/>
<path fill="#FFFFFF" d="M60.227-249.424c0,1.611-1.306,2.917-2.917,2.917s-2.917-1.306-2.917-2.917c0-1.611,1.306-2.917,2.917-2.917
	S60.227-251.035,60.227-249.424"/>
<rect x="-249.321" y="-443.31" display="none" fill="none" width="612" height="792"/>
<g id="WMesGJ.tif" display="none" opacity="0.2">
	
		<image display="inline" overflow="visible" width="380" height="400" id="Layer_0_1_" xlink:href="4B7C585100965F0D.png"  transform="matrix(1 0 0 1 -15.3211 -20.0304)">
	</image>
</g>
<path fill="none" stroke="#231F20" stroke-linecap="round" stroke-linejoin="round" stroke-miterlimit="10" d="M198.988,125.17
	l13.718,13.268c0,0,0.675,1.124,9.22-9.22c2.699-12.369-15.158-16.785-16.057-15.66C201.371,119.18,198.988,125.17,198.988,125.17z"
	/>
<path fill="none" stroke="#231F20" stroke-linecap="round" stroke-linejoin="round" stroke-miterlimit="10" d="M196.666,197.624
	c0,0-10.117,6.685-11.743,8.491c1.626,5.601-4.517,18.97-4.517,20.957s1.626,4.697,1.626,4.697"/>
<path fill="none" stroke="#231F20" stroke-linecap="round" stroke-linejoin="round" stroke-miterlimit="10" d="M205.067,224.091
	c0,0-1.897-6.052-6.414-5.51c-2.71,1.987-4.517,7.588-4.517,7.588l6.504,7.769"/>
<path fill="none" stroke="#231F20" stroke-linecap="round" stroke-linejoin="round" stroke-miterlimit="10" d="M180.406,202.863
	c2.297,0.105,4.517,3.252,4.517,3.252"/>
<path fill="none" stroke="#231F20" stroke-linecap="round" stroke-linejoin="round" stroke-miterlimit="10" d="M180.406,202.863"/>
<path fill="none" stroke="#231F20" stroke-miterlimit="10" d="M180.84,226.869c0,0-3.99-1.526-4.929-0.352
	c-0.939,1.174-1.76,9.389-1.526,10.445c0.235,1.056,3.169,4.577,3.169,4.577"/>
</svg>
