<svg width="376" height="304" viewBox="0 0 376 304" fill="none" xmlns="http://www.w3.org/2000/svg">
<g clip-path="url(#clip0_4512_19826)">
<path d="M28 105.286H328C328 86.9266 313.052 72 294.667 72H61.3333C42.9479 72 28 86.9266 28 105.286ZM28 121.929V271.714C28 290.073 42.9479 305 61.3333 305H294.667C313.052 305 328 290.073 328 271.714V121.929H28ZM61.3333 266.149C61.3333 250.807 73.7813 238.429 89.0937 238.429H150.24C165.604 238.429 178 250.859 178 266.149C178 269.218 175.5 271.714 172.427 271.714H66.9062C63.8333 271.714 61.3333 269.218 61.3333 266.149ZM119.667 221.786C101.281 221.786 86.3333 206.859 86.3333 188.5C86.3333 170.141 101.281 155.214 119.667 155.214C138.052 155.214 153 170.141 153 188.5C153 206.859 138.052 221.786 119.667 221.786ZM211.333 163.536C211.333 158.959 215.083 155.214 219.667 155.214H286.333C290.917 155.214 294.667 158.959 294.667 163.536C294.667 168.112 290.917 171.857 286.333 171.857H219.667C215.083 171.857 211.333 168.112 211.333 163.536ZM211.333 196.821C211.333 192.245 215.083 188.5 219.667 188.5H286.333C290.917 188.5 294.667 192.245 294.667 196.821C294.667 201.398 290.917 205.143 286.333 205.143H219.667C215.083 205.143 211.333 201.398 211.333 196.821ZM211.333 230.107C211.333 225.53 215.083 221.786 219.667 221.786H286.333C290.917 221.786 294.667 225.53 294.667 230.107C294.667 234.684 290.917 238.429 286.333 238.429H219.667C215.083 238.429 211.333 234.684 211.333 230.107Z" fill="#66A3CA"/>
<circle cx="297" cy="89" r="45" fill="#EFC157" stroke="#F4FAFF" stroke-width="10"/>
<path d="M297.407 65.8293L304.19 79.478L319.358 81.6672L308.382 92.2917L310.973 107.293L297.407 100.21L283.842 107.293L286.433 92.2917L275.456 81.6672L290.625 79.478L297.407 65.8293Z" fill="white"/>
</g>
<defs>
<clipPath id="clip0_4512_19826">
<rect width="376" height="304" fill="white"/>
</clipPath>
</defs>
</svg>
